<svg width="52" height="56" viewBox="0 0 52 56" fill="none" xmlns="http://www.w3.org/2000/svg">
<path d="M4.33337 46.6669H8.66671M8.66671 46.6669H21.6667M8.66671 46.6669V26.7218C8.66671 25.4751 8.66671 24.8514 8.80748 24.2711C8.93223 23.7571 9.13858 23.2705 9.41572 22.8308C9.72846 22.3347 10.1631 21.9233 11.0344 21.1023L21.4378 11.299C23.0529 9.77699 23.8607 9.01592 24.7702 8.72624C25.5723 8.47081 26.4273 8.47081 27.2294 8.72624C28.1396 9.01613 28.9484 9.77792 30.5661 11.3023L40.9661 21.1023C41.8373 21.9232 42.2721 22.3347 42.585 22.8308C42.8621 23.2705 43.0669 23.7571 43.1917 24.2711C43.3323 24.8514 43.3334 25.4751 43.3334 26.7218V46.6669M21.6667 46.6669H30.3334M21.6667 46.6669V37.3336C21.6667 34.7562 23.6067 32.6669 26 32.6669C28.3933 32.6669 30.3334 34.7562 30.3334 37.3336V46.6669M43.3334 46.6669H30.3334M43.3334 46.6669H47.6667" stroke="white" stroke-width="4" stroke-linecap="round" stroke-linejoin="round"/>
</svg>
