<svg width="47" height="47" viewBox="0 0 47 47" fill="none" xmlns="http://www.w3.org/2000/svg">
<path d="M8.45 30.6667C4.46956 32.1843 2 34.299 2 36.6382C2 41.2564 11.6259 45 23.5 45C35.3742 45 45 41.2564 45 36.6382C45 34.299 42.5304 32.1843 38.55 30.6667M23.5 16.3333H23.5239M37.8333 16.3333C37.8333 26.0411 27.0833 30.6667 23.5 37.8333C19.9167 30.6667 9.16667 26.0411 9.16667 16.3333C9.16667 8.41725 15.5839 2 23.5 2C31.4161 2 37.8333 8.41725 37.8333 16.3333ZM25.8889 16.3333C25.8889 17.6527 24.8194 18.7222 23.5 18.7222C22.1806 18.7222 21.1111 17.6527 21.1111 16.3333C21.1111 15.014 22.1806 13.9444 23.5 13.9444C24.8194 13.9444 25.8889 15.014 25.8889 16.3333Z" stroke="white" stroke-width="4" stroke-linecap="round" stroke-linejoin="round"/>
</svg>
